<?xml version="1.0" standalone="no"?>
<!DOCTYPE svg PUBLIC "-//W3C//DTD SVG 20010904//EN"
 "http://www.w3.org/TR/2001/REC-SVG-20010904/DTD/svg10.dtd">
<svg version="1.0" xmlns="http://www.w3.org/2000/svg"
 width="581.000000pt" height="536.000000pt" viewBox="0 0 581.000000 536.000000"
 preserveAspectRatio="xMidYMid meet">
<metadata>
Created by potrace 1.16, written by Peter Selinger 2001-2019
</metadata>
<g transform="translate(0.000000,536.000000) scale(0.100000,-0.100000)"
fill="#000000" stroke="none">
<path d="M2610 5274 c-367 -44 -620 -163 -861 -403 -220 -219 -344 -459 -394
-760 -23 -135 -16 -385 13 -511 79 -339 274 -632 551 -830 369 -264 857 -331
1276 -173 454 170 773 539 881 1020 25 108 30 368 10 493 -47 295 -187 562
-409 777 -199 193 -446 320 -713 368 -91 16 -291 27 -354 19z m401 -227 c187
-49 361 -141 495 -261 l67 -59 -35 -31 c-20 -17 -102 -89 -184 -161 -82 -71
-261 -229 -399 -350 -576 -508 -1165 -1025 -1169 -1025 -13 0 -125 186 -156
258 -197 458 -100 964 249 1313 173 174 363 277 606 329 134 29 392 23 526
-13z m716 -519 c249 -391 242 -909 -17 -1293 -64 -95 -191 -229 -279 -295
-280 -210 -657 -285 -1001 -199 -157 39 -355 140 -468 238 l-43 38 158 139
c87 77 309 272 493 434 184 162 443 389 575 505 132 116 308 270 390 343 83
72 153 132 157 132 4 0 20 -19 35 -42z"/>
<path d="M2632 4858 c-7 -7 -12 -40 -12 -80 l0 -68 -39 0 c-21 0 -78 -7 -127
-15 -254 -44 -374 -189 -374 -451 0 -97 16 -166 53 -237 48 -92 119 -139 244
-163 76 -14 77 -14 102 9 14 13 67 59 116 102 50 43 120 105 158 138 l67 59 0
155 0 154 38 -7 c56 -10 106 -39 141 -80 l30 -37 53 45 c29 26 78 69 108 96
l55 50 -39 40 c-68 71 -142 99 -363 138 -21 4 -23 10 -23 65 0 93 -6 99 -98
99 -47 0 -83 -5 -90 -12z m-12 -600 l0 -201 -62 7 c-137 14 -190 46 -206 124
-11 51 -2 135 19 174 17 33 59 66 98 79 39 13 132 27 144 22 4 -2 7 -95 7
-205z"/>
<path d="M3014 3894 c-60 -52 -110 -99 -112 -104 -2 -6 8 -10 22 -10 37 0 96
-26 129 -57 68 -66 63 -239 -10 -303 -38 -34 -117 -60 -180 -60 l-43 0 -2 180
-3 179 -97 -85 -98 -85 0 -95 0 -94 -31 0 c-17 0 -58 7 -90 15 l-60 16 -92
-82 c-51 -45 -98 -88 -106 -95 -29 -26 133 -86 269 -99 118 -11 110 -5 110
-93 0 -47 5 -83 12 -90 16 -16 160 -16 176 0 7 7 12 42 12 89 0 87 2 89 76 89
64 0 187 27 251 55 78 35 163 124 191 200 32 88 44 203 31 300 -18 141 -83
242 -189 295 l-57 29 -109 -95z"/>
<path d="M545 4433 c-67 -23 -146 -101 -169 -168 -15 -44 -20 -164 -42 -945
-27 -952 -27 -1125 2 -1230 25 -95 74 -206 125 -286 25 -38 210 -251 412 -473
316 -347 372 -413 401 -475 19 -39 37 -90 40 -113 6 -41 5 -42 -35 -65 -72
-40 -79 -66 -79 -303 0 -228 4 -244 62 -289 18 -13 44 -27 58 -30 14 -4 261
-10 550 -15 557 -9 562 -9 614 37 46 41 56 86 56 272 0 98 -5 193 -11 215 -7
23 -27 55 -49 76 l-37 36 -6 324 c-4 272 -8 338 -25 414 -52 235 -152 406
-354 600 -57 55 -219 212 -361 350 -141 137 -281 264 -311 282 -53 33 -143 57
-170 47 -24 -9 -4 -112 -196 985 -103 584 -110 614 -166 680 -64 76 -204 110
-309 74z m144 -188 c16 -8 33 -27 39 -42 6 -15 58 -300 116 -633 58 -333 121
-690 139 -795 34 -188 34 -190 16 -230 -27 -58 -25 -166 5 -258 27 -87 342
-646 387 -689 52 -49 129 -28 150 40 14 47 27 20 -179 377 -185 321 -221 417
-175 467 21 23 70 23 105 0 28 -18 523 -496 680 -655 99 -100 166 -201 210
-314 50 -129 58 -196 58 -503 0 -241 -2 -279 -16 -291 -12 -10 -84 -12 -346
-10 -182 1 -337 5 -344 8 -8 3 -19 24 -25 47 -44 171 -74 230 -180 351 -52 60
-332 368 -549 604 -64 69 -131 148 -149 174 -68 99 -114 230 -126 357 -7 70
42 1923 51 1953 7 21 61 57 87 57 10 0 31 -7 46 -15z m1454 -3745 l197 0 0
-135 0 -135 -197 0 c-109 0 -323 3 -475 7 l-278 6 0 135 0 135 278 -6 c152 -4
366 -7 475 -7z"/>
<path d="M1505 415 c-30 -30 -31 -54 -4 -89 26 -33 68 -34 97 -3 30 32 28 71
-4 96 -35 27 -59 26 -89 -4z"/>
<path d="M4720 4441 c-82 -25 -141 -75 -180 -151 -12 -23 -45 -188 -90 -441
-39 -222 -100 -570 -136 -773 -36 -203 -67 -373 -70 -378 -4 -5 -12 -7 -20 -4
-26 10 -125 -17 -174 -48 -44 -28 -322 -291 -666 -631 -182 -180 -262 -297
-319 -469 -51 -152 -56 -200 -61 -546 l-5 -325 -30 -23 c-58 -46 -63 -69 -67
-276 -4 -204 4 -250 51 -294 53 -50 53 -50 612 -41 286 4 534 11 552 14 18 3
46 17 63 32 57 47 60 62 60 288 0 238 -6 262 -80 304 -41 23 -41 24 -35 65 10
57 33 113 69 166 16 24 190 220 385 434 195 215 375 422 399 460 87 135 139
288 149 441 6 104 -33 1734 -46 1902 -10 128 -30 175 -101 236 -65 56 -182 82
-260 58z m114 -191 c56 -21 54 5 76 -800 11 -410 23 -844 26 -965 8 -248 -2
-330 -57 -462 -42 -99 -88 -162 -258 -347 -80 -88 -196 -214 -256 -280 -374
-408 -378 -415 -435 -633 -8 -31 -17 -44 -33 -47 -12 -3 -165 -7 -340 -9 -259
-3 -321 -1 -337 10 -19 14 -20 26 -20 294 0 307 8 372 60 506 42 109 110 210
207 310 143 145 637 622 673 648 64 47 130 24 130 -45 0 -66 -35 -142 -192
-415 -206 -360 -193 -330 -179 -377 19 -63 93 -88 144 -48 39 31 365 608 393
697 30 92 32 199 6 258 l-18 40 67 385 c38 212 100 570 139 795 39 226 76 423
82 438 18 46 71 67 122 47z m-784 -3873 l0 -134 -277 -6 c-153 -4 -367 -7
-475 -7 l-198 0 0 135 0 135 293 3 c160 1 374 3 475 5 l182 2 0 -133z"/>
<path d="M3846 419 c-47 -37 -20 -119 40 -119 30 0 74 41 74 70 0 26 -43 70
-68 70 -11 0 -31 -9 -46 -21z"/>
</g>
</svg>
