<?xml version="1.0" standalone="no"?>
<!DOCTYPE svg PUBLIC "-//W3C//DTD SVG 20010904//EN"
 "http://www.w3.org/TR/2001/REC-SVG-20010904/DTD/svg10.dtd">
<svg version="1.0" xmlns="http://www.w3.org/2000/svg"
 width="307.000000pt" height="307.000000pt" viewBox="0 0 307.000000 307.000000"
 preserveAspectRatio="xMidYMid meet">
<metadata>
Created by potrace 1.16, written by Peter Selinger 2001-2019
</metadata>
<g transform="translate(0.000000,307.000000) scale(0.100000,-0.100000)"
fill="#000000" stroke="none">
<path d="M760 2794 c-351 -75 -620 -338 -707 -690 -11 -47 -17 -112 -17 -204
0 -148 12 -213 64 -348 63 -163 84 -188 787 -892 l653 -655 648 650 c357 358
667 675 690 706 56 77 107 183 139 286 24 80 27 103 26 248 0 131 -3 174 -21
236 -95 347 -377 607 -726 668 -33 6 -103 11 -156 11 -202 0 -380 -58 -538
-174 l-62 -46 -53 41 c-79 64 -241 137 -350 160 -110 22 -281 24 -377 3z m360
-171 c138 -33 284 -121 377 -229 l46 -53 40 49 c74 91 189 169 314 214 421
149 881 -116 973 -561 20 -100 9 -281 -24 -377 -58 -169 -58 -170 -705 -822
l-596 -600 -573 570 c-315 314 -594 598 -619 631 -56 75 -94 149 -125 245 -20
64 -23 95 -23 215 1 127 3 148 29 220 44 129 90 201 190 301 69 69 110 100
171 131 173 89 341 110 525 66z"/>
<path d="M1899 1317 l-355 -361 -200 202 -199 203 -60 -61 -60 -60 260 -260
260 -259 414 420 414 421 -59 58 -59 59 -356 -362z"/>
</g>
</svg>
