<?xml version="1.0" standalone="no"?>
<!DOCTYPE svg PUBLIC "-//W3C//DTD SVG 20010904//EN"
 "http://www.w3.org/TR/2001/REC-SVG-20010904/DTD/svg10.dtd">
<svg version="1.0" xmlns="http://www.w3.org/2000/svg"
 width="490.000000pt" height="490.000000pt" viewBox="0 0 490.000000 490.000000"
 preserveAspectRatio="xMidYMid meet">
<metadata>
Created by potrace 1.16, written by Peter Selinger 2001-2019
</metadata>
<g transform="translate(0.000000,490.000000) scale(0.100000,-0.100000)"
fill="#000000" stroke="none">
<path d="M2425 4150 c-16 -11 -39 -25 -49 -32 -86 -57 -714 -582 -946 -790
-36 -32 -68 -58 -72 -58 -5 0 -8 104 -8 230 l0 230 -300 0 -300 0 0 -500 0
-499 -339 -302 c-213 -189 -341 -309 -343 -323 -10 -52 39 -104 86 -92 14 3
76 50 138 104 62 54 151 131 198 171 47 41 240 207 429 370 431 371 713 614
1155 996 191 165 358 307 369 317 21 16 24 14 88 -40 69 -60 514 -443 779
-672 86 -74 269 -232 406 -349 137 -118 314 -271 394 -340 80 -69 208 -179
285 -246 77 -66 142 -122 145 -125 3 -3 52 -45 109 -95 86 -73 110 -89 137
-89 44 0 74 28 74 71 0 41 18 22 -285 288 -131 116 -320 282 -420 370 -992
875 -1646 1426 -1694 1425 -4 0 -19 -9 -36 -20z m-1225 -797 l0 -228 -137
-120 c-75 -66 -142 -124 -149 -128 -12 -7 -14 52 -14 348 l0 355 150 0 150 0
0 -227z"/>
<path d="M2127 3437 c-396 -332 -1256 -1050 -1377 -1150 -52 -43 -103 -88
-112 -99 -17 -19 -18 -85 -18 -1073 0 -1022 1 -1053 19 -1076 l19 -24 707 0
707 0 19 24 c18 22 19 46 19 542 l0 519 350 0 349 0 3 -520 3 -519 23 -23 23
-23 700 0 701 0 24 28 24 28 0 1039 c0 726 -3 1046 -11 1062 -9 19 -450 394
-803 683 -40 33 -127 105 -192 160 -66 55 -128 107 -139 117 -11 9 -54 45 -95
80 -42 34 -98 81 -124 103 -27 22 -81 67 -121 100 -334 281 -327 275 -362 275
-29 0 -75 -35 -336 -253z m723 -241 c179 -149 336 -281 350 -292 14 -12 97
-82 185 -155 479 -399 713 -595 743 -622 l32 -31 0 -963 0 -963 -595 0 -594 0
-3 520 c-3 515 -3 520 -24 541 -21 21 -26 21 -460 20 -242 -1 -449 -1 -461 -1
-13 0 -32 -9 -43 -20 -19 -19 -20 -33 -20 -540 l0 -520 -595 0 -595 0 0 969 0
968 43 34 c24 19 234 194 466 389 233 195 460 385 505 421 44 37 216 180 380
317 l299 251 31 -26 c17 -14 177 -148 356 -297z"/>
</g>
</svg>
