<?xml version="1.0" standalone="no"?>
<!DOCTYPE svg PUBLIC "-//W3C//DTD SVG 20010904//EN"
 "http://www.w3.org/TR/2001/REC-SVG-20010904/DTD/svg10.dtd">
<svg version="1.0" xmlns="http://www.w3.org/2000/svg"
 width="186.000000pt" height="185.000000pt" viewBox="0 0 186.000000 185.000000"
 preserveAspectRatio="xMidYMid meet">
<metadata>
Created by potrace 1.16, written by Peter Selinger 2001-2019
</metadata>
<g transform="translate(0.000000,185.000000) scale(0.100000,-0.100000)"
fill="#000000" stroke="none">
<path d="M835 1803 c-259 -34 -502 -186 -648 -406 -118 -178 -170 -424 -133
-635 37 -211 117 -363 268 -508 135 -131 283 -206 475 -239 274 -48 550 34
755 224 122 113 195 221 243 359 138 396 -4 828 -351 1061 -170 114 -409 170
-609 144z m338 -78 c151 -43 279 -119 385 -228 l54 -55 -207 -157 c-199 -152
-231 -185 -185 -192 8 -2 106 67 217 152 l203 154 18 -27 c37 -52 82 -152 108
-239 24 -77 27 -105 27 -228 0 -123 -3 -151 -27 -228 -90 -299 -294 -503 -593
-593 -77 -24 -105 -27 -228 -27 -123 0 -151 3 -228 27 -154 46 -280 121 -385
229 l-54 54 103 79 c103 78 125 106 94 117 -9 4 -53 -22 -120 -72 l-105 -79
-19 26 c-36 52 -81 152 -107 239 -39 128 -39 328 0 456 100 333 362 564 699
618 91 14 253 2 350 -26z"/>
<path d="M786 1439 c-35 -28 -36 -80 -1 -107 25 -20 25 -22 25 -170 l0 -149
-53 -35 c-101 -68 -167 -207 -152 -324 14 -116 93 -221 204 -272 80 -37 192
-37 272 0 111 51 190 156 204 272 15 117 -48 251 -151 322 l-54 37 0 150 c0
147 0 149 25 169 35 27 34 79 -1 107 -24 19 -40 21 -159 21 -119 0 -135 -2
-159 -21z m244 -292 c5 -179 3 -170 61 -202 34 -18 109 -101 109 -120 0 -13
-33 -15 -255 -15 -222 0 -255 2 -255 15 0 20 76 102 111 121 58 30 59 33 59
203 0 87 3 160 6 164 3 3 40 5 82 4 l77 -2 5 -168z m201 -419 c5 -166 -72
-276 -221 -314 -58 -15 -69 -15 -128 0 -147 36 -231 153 -223 314 l1 32 285 0
285 0 1 -32z"/>
<path d="M775 710 c-41 -46 -7 -120 55 -120 33 0 70 40 70 74 0 57 -86 89
-125 46z"/>
<path d="M1010 708 c-27 -29 -25 -64 5 -93 28 -29 61 -32 93 -9 28 20 31 83 4
107 -26 24 -77 21 -102 -5z"/>
<path d="M919 598 c-35 -12 -53 -55 -40 -91 22 -58 102 -60 129 -4 28 58 -27
116 -89 95z"/>
</g>
</svg>
