<?xml version="1.0" standalone="no"?>
<!DOCTYPE svg PUBLIC "-//W3C//DTD SVG 20010904//EN"
 "http://www.w3.org/TR/2001/REC-SVG-20010904/DTD/svg10.dtd">
<svg version="1.0" xmlns="http://www.w3.org/2000/svg"
 width="430.000000pt" height="430.000000pt" viewBox="0 0 430.000000 430.000000"
 preserveAspectRatio="xMidYMid meet">
<metadata>
Created by potrace 1.16, written by Peter Selinger 2001-2019
</metadata>
<g transform="translate(0.000000,430.000000) scale(0.100000,-0.100000)"
fill="#000000" stroke="none">
<path d="M1890 4205 c-683 -95 -1267 -511 -1578 -1123 -153 -301 -222 -593
-222 -942 0 -349 69 -641 222 -942 209 -413 540 -735 963 -939 279 -135 564
-198 892 -199 348 0 645 69 945 222 625 317 1043 917 1128 1618 15 124 12 382
-5 517 -120 926 -862 1668 -1788 1788 -143 18 -424 18 -557 0z m539 -190 c854
-122 1514 -795 1621 -1655 13 -109 13 -331 0 -440 -70 -561 -376 -1054 -845
-1363 -307 -202 -660 -307 -1035 -307 -451 0 -869 152 -1215 442 -595 498
-825 1311 -580 2046 65 195 187 421 312 577 299 376 733 626 1213 699 126 19
398 19 529 1z"/>
<path d="M2295 3320 c-402 -34 -709 -193 -952 -495 -426 -529 -394 -1160 85
-1676 l74 -80 9 -147 c9 -174 34 -337 55 -370 29 -45 96 -51 138 -14 33 31 37
58 19 155 -26 135 -25 605 1 767 53 336 135 544 314 794 107 149 306 331 435
397 94 49 75 189 -26 189 -86 0 -332 -190 -494 -383 -241 -288 -366 -579 -421
-984 l-18 -127 -45 60 c-145 192 -225 392 -236 594 -14 261 74 484 295 745
221 261 521 388 912 387 204 -1 439 -45 592 -111 l47 -20 -39 -83 c-55 -119
-95 -262 -141 -508 -73 -393 -104 -510 -176 -655 -139 -277 -397 -452 -760
-514 -60 -10 -119 -23 -130 -30 -33 -17 -47 -72 -29 -114 25 -62 64 -69 221
-41 365 64 664 257 830 537 100 168 150 331 221 722 71 395 105 514 184 645
65 107 53 148 -58 204 -157 79 -402 139 -638 156 -76 5 -148 9 -159 8 -11 0
-60 -4 -110 -8z"/>
</g>
</svg>
